<?xml version="1.0" encoding="utf-8"?>
<!-- Generator: Adobe Illustrator 16.0.0, SVG Export Plug-In . SVG Version: 6.00 Build 0)  -->
<!DOCTYPE svg PUBLIC "-//W3C//DTD SVG 1.1//EN" "http://www.w3.org/Graphics/SVG/1.1/DTD/svg11.dtd" [
	<!ENTITY st0 "fill:#FFFFFF;">
]>
<svg version="1.1" id="Capa_1" xmlns="http://www.w3.org/2000/svg" xmlns:xlink="http://www.w3.org/1999/xlink" x="0px" y="0px"
	 width="531px" height="246px" viewBox="0 0 531 246" style="enable-background:new 0 0 531 246;" xml:space="preserve">
<g>
	<polygon style="&st0;" points="189.42,74.484 177.185,66.446 178.678,64.172 190.914,72.211 192.209,70.239 167.738,54.162 
		166.443,56.134 176.672,62.854 175.179,65.127 164.949,58.407 163.676,60.346 188.146,76.424 	"/>
	
		<rect x="168.783" y="56.614" transform="matrix(0.7854 0.619 -0.619 0.7854 75.1298 -101.1422)" style="&st0;" width="29.28" height="2.319"/>
	<polygon style="&st0;" points="187.086,35.292 205.246,55.862 207.016,54.3 188.854,33.73 190.744,32.062 189.499,30.653 
		187.609,32.321 185.841,33.883 183.951,35.551 185.195,36.959 	"/>
	<polygon style="&st0;" points="212.254,50.037 203.771,38.106 205.988,36.529 214.471,48.461 216.394,47.094 199.428,23.23 
		197.505,24.598 204.598,34.573 202.381,36.149 195.288,26.173 193.397,27.518 210.362,51.382 	"/>
	<polygon style="&st0;" points="211.637,32.951 217.639,43.527 218.883,45.719 224.17,42.718 222.927,40.527 219.656,42.382 
		213.654,31.807 216.925,29.951 215.721,27.829 212.451,29.685 207.613,21.162 210.884,19.306 209.659,17.149 204.372,20.149 
		210.432,30.83 	"/>
	<path style="&st0;" d="M228.11,40.784l-5.902-13.397l2.452-1.081l5.902,13.398l2.123-0.937l-5.725-12.994l-2.093-0.783l0.835-2.073
		l-3.887-8.822l-2.912-1.252l-4.722,2.081l11.805,26.794L228.11,40.784z M217.306,16.258l2.452-1.081l3.984,9.042l-2.453,1.081
		L217.306,16.258z"/>
	<polygon style="&st0;" points="230.624,24.018 234.386,35.582 235.166,37.978 240.947,36.097 240.168,33.701 236.592,34.864 
		232.83,23.299 236.406,22.137 235.651,19.816 232.076,20.979 229.044,11.66 232.619,10.498 231.853,8.14 226.07,10.02 
		229.869,21.697 	"/>
	<polygon style="&st0;" points="252.66,33.6 252.08,36.104 252.992,35.977 254.125,33.396 253.793,31.019 251.416,31.351 
		251.748,33.728 	"/>
	<polygon style="&st0;" points="271.404,28.061 273.783,22.513 274.184,22.537 273.548,33.038 275.904,33.18 277.676,3.834 
		275.32,3.691 271.953,19.638 271.514,19.611 270.09,3.375 267.774,3.236 266.002,32.583 268.317,32.722 268.952,22.221 
		269.352,22.246 271.005,28.035 	"/>
	<polygon style="&st0;" points="282.455,34.277 282.848,34.352 283.79,34.534 285.709,24.516 292.997,6.444 290.719,6.007 
		286.053,17.617 285.62,17.534 285.572,5.021 283.294,4.585 283.398,24.032 281.473,34.09 	"/>
	<polygon style="&st0;" points="307.42,23.321 307.494,23.354 304.082,41.312 306.239,42.268 318.107,15.501 315.95,14.544 
		308.734,30.817 312.146,12.859 312.073,12.826 309.953,11.885 298.085,38.653 300.205,39.593 	"/>
	<path style="&st0;" d="M309.568,44.168l4.77-6.522l1.758,1.035l-3.425,7.313l1.964,1.158l12.402-26.816l-2-1.177l-17.434,23.853
		L309.568,44.168z M319.518,30.345l0.414,0.243l-2.887,6.006l-0.551-0.325l-0.275-0.162l-0.553-0.325L319.518,30.345z"/>
	<polygon style="&st0;" points="317.836,49.456 324.213,41.089 324.531,41.332 322.679,47.062 322.996,47.304 328.063,44.024 
		328.381,44.267 322.003,52.632 323.88,54.063 341.703,30.682 339.827,29.251 328.145,40.616 327.795,40.35 335.66,26.075 
		333.814,24.668 315.99,48.049 	"/>
	<polygon style="&st0;" points="336.057,45.42 327.646,54.202 325.902,56.022 330.294,60.228 332.037,58.408 329.321,55.806 
		337.732,47.025 340.449,49.625 342.135,47.864 339.421,45.263 346.199,38.185 348.914,40.786 350.631,38.995 346.239,34.789 
		337.745,43.658 	"/>
	
		<rect x="335.718" y="60.259" transform="matrix(-0.809 0.5878 -0.5878 -0.809 669.9019 -94.8303)" style="&st0;" width="29.28" height="2.32"/>
	<polygon style="&st0;" points="354.395,67.723 355.592,69.709 345.348,75.883 344.191,73.965 348.953,71.094 347.695,69.004 
		342.898,71.896 342.061,75.155 343.258,77.143 346.512,77.89 356.994,71.572 357.715,68.429 356.518,66.442 364.98,61.341 
		366.363,63.637 363.108,65.598 364.306,67.585 367.561,65.624 368.486,62.357 367.104,60.061 364.158,59.127 355.32,64.455 	"/>
	
		<rect x="333.182" y="187.23" transform="matrix(-0.7879 -0.6158 0.6158 -0.7879 505.8598 551.0122)" style="&st0;" width="29.281" height="2.32"/>
	<polygon style="&st0;" points="353.845,199.223 352.294,201.001 354.103,202.579 355.911,204.156 357.462,202.378 355.653,200.8 	
		"/>
	<polygon style="&st0;" points="329.47,187.101 336.726,194.717 336.437,194.993 331.069,192.26 330.78,192.536 333.222,198.056 
		332.931,198.332 325.675,190.715 323.966,192.343 344.245,213.629 345.954,212.001 336.573,198.675 336.892,198.371 
		349.749,208.387 351.429,206.786 331.149,185.5 	"/>
	<path style="&st0;" d="M313.169,200.17l3.445,7.31l-1.75,1.048l-4.783-6.508l-1.955,1.172l17.609,23.723l1.99-1.192l-12.6-26.723
		L313.169,200.17z M317.065,209.866l0.549-0.328l2.932,5.984l-0.412,0.246l-3.893-5.408l0.549-0.329L317.065,209.866z"/>
	<polygon style="&st0;" points="295.257,208.796 297.312,222.086 296.854,222.233 290.765,210.243 288.519,210.966 296.212,239.291 
		298.421,238.58 294.606,222.957 295.063,222.81 300.935,237.771 303.142,237.059 299.101,221.51 299.595,221.351 305.604,236.224 
		307.813,235.513 297.466,208.084 	"/>
	<polygon style="&st0;" points="288.063,225.993 285.743,214.057 285.261,211.583 279.294,212.744 279.774,215.218 283.466,214.5 
		285.786,226.437 282.095,227.154 282.562,229.549 286.251,228.831 288.122,238.451 284.431,239.169 284.905,241.604 
		290.872,240.442 288.528,228.389 	"/>
	<path style="&st0;" d="M278.835,228.026l-0.648-7.011l-0.482-5.218l-0.084-0.916l-0.172-1.872l-5.139,0.475l-2.1,2.926l0.709,7.688
		l0.387,4.182l1.736,1.406l-1.445,1.741l0.887,9.599l2.49,1.738l2.867-0.265l0.16-0.015l2.15-0.199l-1.082-11.71L278.835,228.026z
		 M273.271,223.881l-0.711-7.688l2.828-0.262l1.137,12.308l-2.828,0.262L273.271,223.881z M274.819,240.649l-0.914-9.878
		l2.828-0.262l0.912,9.878L274.819,240.649z"/>
	<path style="&st0;" d="M250.666,215.144l-0.473,3.973l-0.18,1.509l-1.789,15.014l-0.397,3.337l-0.023,0.198l1.43,2.869l5.601,0.667
		l3.18-26.69l0.298-2.503l-5.601-0.667L250.666,215.144z M255.71,215.745l-2.886,24.229l-2.741-0.327l0.047-0.396l0.397-3.337
		l1.789-15.014l0.18-1.509l0.473-3.973L255.71,215.745z"/>
	<polygon style="&st0;" points="248.392,212.141 242.457,210.822 241.91,213.282 245.581,214.098 242.943,225.968 239.272,225.152 
		238.743,227.534 242.414,228.35 240.288,237.916 236.617,237.101 236.079,239.521 242.015,240.841 244.678,228.854 
		245.208,226.472 247.845,214.601 	"/>
	<polygon style="&st0;" points="235.632,208.746 223.509,235.602 225.67,236.329 232.56,220.753 233.015,220.906 229.082,237.478 
		231.243,238.205 237.831,209.486 	"/>
	<polygon style="&st0;" points="229.257,208.916 230.31,206.626 224.785,204.087 223.732,206.377 227.149,207.947 222.072,218.996 
		218.655,217.426 217.636,219.644 221.053,221.213 216.961,230.118 213.544,228.548 212.509,230.802 218.034,233.34 
		223.161,222.182 224.18,219.965 	"/>
	<polygon style="&st0;" points="218.164,200.401 216.977,202.486 220.244,204.348 206.882,227.81 208.898,228.957 223.448,203.41 	
		"/>
	<path style="&st0;" d="M215.375,198.549l-3.243-2.271l-2.897,0.998l-13.884,19.821l-0.063,3.228l3.244,2.271l3.012-1.162
		l13.884-19.821L215.375,198.549z M199.528,220.267l-2.392-1.676l13.999-19.984l2.392,1.675L199.528,220.267z"/>
	<path style="&st0;" d="M207.657,192.735l-9.626,11.083l-2.476-2.15l-3.09,0.813l-6.138,7.067l-0.398,3.203l4.228,3.672
		l19.252-22.166L207.657,192.735z M190.083,212.969l-2.084-1.81l6.453-7.429l2.083,1.81L190.083,212.969z"/>
	<polygon style="&st0;" points="191.289,197.579 200.118,189.218 201.947,187.484 197.767,183.07 195.937,184.803 198.522,187.533 
		189.693,195.895 187.108,193.164 185.336,194.842 187.922,197.572 180.806,204.311 178.221,201.581 176.42,203.286 
		180.601,207.701 189.517,199.257 	"/>
	<path style="&st0;" d="M194.942,179.714l-11.582,8.955l-1.639-2.12l11.582-8.955l-1.419-1.835l-11.234,8.687l-0.255,2.22
		l-2.212-0.312l-7.626,5.896l-0.514,3.128l3.156,4.082l23.163-17.91L194.942,179.714z M173.741,196.107l-1.639-2.12l7.816-6.043
		l1.639,2.12L173.741,196.107z"/>
	<path style="&st0;" d="M43.356,98.473c-3.465,0-6.23,1.43-8.54,3.685c-2.255,2.31-3.316,5.444-3.316,8.909v17.982
		c0,3.465,1.061,6.6,3.316,8.91c2.31,2.254,5.259,3.684,8.724,3.684c3.52,0,6.837-1.43,9.092-3.684
		c2.31-2.311,3.868-5.445,3.868-8.91v-3.408l-3.63,3.408c0,5.061-4.098,9.186-9.212,9.186c-5.06,0-9.158-4.125-9.158-9.186v-17.982
		c0-5.059,3.96-9.184,9.02-9.184c5.114,0,9.432,4.125,9.432,9.184l3.548,3.41v-3.41c0-3.464-1.65-6.599-3.96-8.909
		C50.285,99.903,46.875,98.473,43.356,98.473z"/>
	<path style="&st0;" d="M52.477,111.066c0-4.784-3.649-8.744-8.488-8.744c-4.84,0-8.489,3.959-8.489,8.744v17.982
		c0,4.84,3.46,8.689,8.3,8.744c4.839-0.055,8.899-3.904,8.899-8.744L49.5,125.64v3.408c0,1.486-0.982,2.805-1.972,3.795
		c-0.935,0.99-2.499,1.541-3.983,1.541c-1.485,0-2.633-0.551-3.623-1.541c-0.935-0.99-1.422-2.309-1.422-3.795v-17.982
		c0-1.484,0.393-2.804,1.328-3.794c0.99-0.935,2.176-1.54,3.661-1.54c1.484,0,3.17,0.605,4.105,1.54
		c0.99,0.99,1.906,2.31,1.906,3.794v3.354L52.477,111.066z"/>
	<polygon style="&st0;" points="80.92,97.539 70.691,123 63.542,123 66.952,127 72.946,127 80.92,107.203 88.949,127 94.943,127 
		98.353,123 91.203,123 	"/>
	<polygon style="&st0;" points="73.276,127 68.381,139.437 70.251,143.961 75.53,131 86.364,131 91.644,144.157 93.513,139.4 
		88.619,127 	"/>
	<polygon style="&st0;" points="94.998,127 89.168,127 93.953,139.271 98.353,141.266 94.118,131 98.353,131 	"/>
	<polygon style="&st0;" points="66.952,127 63.542,131 67.776,131 63.542,141.462 67.941,139.236 72.726,127 	"/>
	<path style="&st0;" d="M73.441,127h15.013l-7.534-18.532L73.441,127z M78.445,123l2.475-6.159L83.449,123H78.445z"/>
	<path style="&st0;" d="M131.298,111.122c0-3.52-1.43-6.918-3.74-9.173c-2.255-2.31-5.389-3.949-8.854-3.949H106.5v43.642l3-3.354
		V101h9.205c5.059,0,9.184,4.566,9.184,9.68c0,2.749-1.21,5.444-3.135,7.149c-1.1,0.99-2.475,1.816-3.959,2.146
		c1.485,0.329,3.166,1.154,4.265,2.089c1.925,1.705,3.44,4.235,3.44,6.983v9.24l3,3.354v-12.594c0-3.463-1.531-6.598-3.84-8.908
		c0,0-0.105,0-0.105-0.055l0.029-0.056C129.893,117.72,131.298,114.585,131.298,111.122z"/>
	<path style="&st0;" d="M124.367,122.243c-1.54-1.266-3.518-2.243-5.662-2.243H110.5v18.288l3,3.354V123h5.205
		c1.484,0,3.035,0.962,4.025,1.897c0.935,0.988,1.77,2.666,1.77,4.15v12.594l3-3.354v-9.24
		C127.5,126.409,126.237,123.837,124.367,122.243z"/>
	<path style="&st0;" d="M124.314,117.342c1.87-1.595,3.08-3.932,3.08-6.626c0-4.84-3.904-8.716-8.688-8.716H110.5v12.036V119h2.815
		h5.39C120.85,119,122.774,118.663,124.314,117.342z M113.5,105h5.205c1.484,0,2.804,0.971,3.794,1.96
		c0.935,0.936,1.54,2.493,1.54,3.979c0,1.484-0.605,2.667-1.54,3.658c-0.99,0.935-2.31,1.403-3.794,1.403H113.5V105z"/>
	<polygon style="&st0;" points="147.5,98.363 143.5,101.717 143.5,137 161.053,137 164.408,134 147.5,134 	"/>
	<polygon style="&st0;" points="143.5,138 143.5,101.717 139.5,98.363 139.5,141 164.408,141 161.053,138 	"/>
	<path style="&st0;" d="M185.027,102.322c-4.839,0-8.527,3.959-8.527,8.744v17.982c0,4.84,3.688,8.689,8.527,8.744
		c4.784-0.055,8.473-3.904,8.473-8.744v-17.982C193.5,106.282,189.812,102.322,185.027,102.322z M190.5,129.048
		c0,1.486-0.973,2.805-1.908,3.795c-0.99,0.99-2.494,1.541-3.979,1.541c-1.484,0-2.722-0.551-3.712-1.541
		c-0.935-0.99-1.401-2.309-1.401-3.795v-17.982c0-1.484,0.375-2.804,1.309-3.794c0.99-0.935,2.25-1.54,3.735-1.54
		c1.485,0,3.116,0.605,4.106,1.54c0.935,0.99,1.85,2.31,1.85,3.794V129.048z"/>
	<path style="&st0;" d="M184.429,98.473c-3.52,0-6.322,1.43-8.576,3.685c-2.311,2.31-3.353,5.444-3.353,8.909v17.982
		c0,3.465,1.042,6.6,3.353,8.91c2.254,2.254,5.223,3.684,8.742,3.684c3.465,0,6.755-1.43,9.009-3.684
		c2.311-2.311,3.896-5.445,3.896-8.91v-17.982c0-3.464-1.668-6.599-3.979-8.909C191.267,99.903,187.894,98.473,184.429,98.473z
		 M194.5,129.048c0,5.061-4.413,9.186-9.473,9.186c-5.114,0-9.527-4.125-9.527-9.186v-17.982c0-5.059,4.413-9.184,9.527-9.184
		c5.06,0,9.473,4.125,9.473,9.184V129.048z"/>
	<path style="&st0;" d="M226.5,111.122v-0.056c0-4.784-4.151-8.688-8.935-8.688c-5.005,0-8.868,3.52-8.868,8.249
		c0,4.564,4.338,7.919,8.737,9.238c2.31,0.66,4.478,1.87,6.074,3.354c1.979,1.815,3.009,4.014,3.009,6.325
		c0,2.42-0.943,4.674-2.703,6.27c-1.704,1.594-4.018,2.475-6.492,2.475c-5.114,0-8.854-4.18-8.854-9.24l-2.969-3.354v3.354
		c0,6.93,5.222,12.594,12.206,12.594c3.299,0,6.239-1.209,8.604-3.354c2.419-2.256,3.697-5.391,3.697-8.744
		c0-3.301-1.478-6.325-4.172-8.799c-1.98-1.814-4.699-3.3-7.503-4.124c-2.584-0.771-6.391-2.97-6.391-5.994
		c0-2.86,2.672-4.895,5.807-4.895c2.969,0,5.752,2.419,5.752,5.334v3.41L226.5,111.122z"/>
	<path style="&st0;" d="M230.5,111.066c0-6.929-5.958-12.538-12.887-12.538c-3.354,0-6.636,1.155-9.001,3.3
		c-2.42,2.31-3.813,5.389-3.813,8.799c0,3.244,1.393,6.324,4.087,8.799c1.98,1.814,4.602,3.299,7.407,4.125
		c3.079,0.879,6.37,3.135,6.37,5.994c0,2.805-1.974,4.895-5.053,4.895c-2.97,0-5.108-2.42-5.108-5.391v-3.354l-3.64,3.354
		c0,4.84,3.761,8.744,8.601,8.744c4.949,0,8.617-3.574,8.617-8.248c0-4.564-4.435-7.919-8.834-9.239
		c-4.564-1.32-9.147-4.84-9.147-9.679c0-2.475,0.926-4.675,2.686-6.324c1.705-1.54,4.01-2.42,6.541-2.42
		c5.059,0,9.476,4.125,9.476,9.184l3.701,3.41V111.066z"/>
	<path style="&st0;" d="M259.706,111.066c0-4.784-3.763-8.744-8.603-8.744c-4.839,0-8.603,3.959-8.603,8.744v17.982
		c0,4.84,3.689,8.689,8.528,8.744c4.84-0.055,8.786-3.904,8.786-8.744l-3.313-3.408v3.408c0,1.486-0.753,2.805-1.744,3.795
		c-0.935,0.99-2.384,1.541-3.87,1.541c-1.484,0-2.804-0.551-3.793-1.541c-0.936-0.99-1.594-2.309-1.594-3.795v-17.982
		c0-1.484,0.621-2.804,1.557-3.794c0.989-0.935,2.29-1.54,3.774-1.54c1.485,0,3,0.605,3.935,1.54c0.99,0.99,1.734,2.31,1.734,3.794
		v3.354L259.706,111.066z"/>
	<path style="&st0;" d="M250.813,98.473c-3.464,0-6.458,1.43-8.768,3.685c-2.255,2.31-3.544,5.444-3.544,8.909v17.982
		c0,3.465,1.29,6.6,3.544,8.91c2.31,2.254,5.375,3.684,8.838,3.684c3.52,0,6.666-1.43,8.92-3.684c2.31-2.311,3.697-5.445,3.697-8.91
		v-3.408l-3.401,3.408c0,5.061-3.713,9.186-8.827,9.186c-5.059,0-8.771-4.125-8.771-9.186v-17.982c0-5.059,3.689-9.184,8.748-9.184
		c5.114,0,9.068,4.125,9.068,9.184l3.184,3.41v-3.41c0-3.464-1.422-6.599-3.731-8.909C257.514,99.903,254.332,98.473,250.813,98.473
		z"/>
	<polygon style="&st0;" points="275.398,139.271 280.183,127 274.408,127 270.999,131 275.233,131 270.999,141.266 	"/>
	<path style="&st0;" d="M280.897,127h15.013l-7.534-18.532L280.897,127z M285.901,123l2.475-6.159l2.53,6.159H285.901z"/>
	<polygon style="&st0;" points="282.987,131 293.82,131 299.1,144.157 300.97,139.4 296.075,127 280.732,127 275.838,139.437 
		277.708,143.961 	"/>
	<polygon style="&st0;" points="274.408,127 280.402,127 288.376,107.203 296.405,127 302.399,127 305.809,123 298.66,123 
		288.376,97.539 278.147,123 270.999,123 	"/>
	<polygon style="&st0;" points="302.454,127 296.625,127 301.409,139.271 305.809,141.266 301.574,131 305.809,131 	"/>
	<path style="&st0;" d="M334.5,111.122v-0.056c0-4.784-3.922-8.688-8.705-8.688c-5.006,0-8.753,3.52-8.753,8.249
		c0,4.564,4.395,7.919,8.794,9.238c2.31,0.66,4.507,1.87,6.103,3.354c1.979,1.815,3.023,4.014,3.023,6.325
		c0,2.42-0.937,4.674-2.696,6.27c-1.703,1.594-4.014,2.475-6.488,2.475c-5.113,0-9.081-4.18-9.081-9.24l-3.196-3.354v3.354
		c0,6.93,5.451,12.594,12.436,12.594c3.299,0,6.354-1.209,8.72-3.354c2.419-2.256,3.754-5.391,3.754-8.744
		c0-3.301-1.449-6.325-4.144-8.799c-1.98-1.814-4.685-3.3-7.489-4.124c-2.584-0.771-6.384-2.97-6.384-5.994
		c0-2.86,2.446-4.895,5.581-4.895c2.969,0,5.526,2.419,5.526,5.334v3.41L334.5,111.122z"/>
	<path style="&st0;" d="M338.5,111.066c0-6.929-5.729-12.538-12.658-12.538c-3.354,0-6.521,1.155-8.887,3.3
		c-2.42,2.31-3.755,5.389-3.755,8.799c0,3.244,1.421,6.324,4.115,8.799c1.98,1.814,4.616,3.299,7.421,4.125
		c3.079,0.879,6.377,3.135,6.377,5.994c0,2.805-2.2,4.895-5.278,4.895c-2.971,0-5.335-2.42-5.335-5.391v-3.354l-3.41,3.354
		c0,4.84,3.876,8.744,8.716,8.744c4.949,0,8.674-3.574,8.674-8.248c0-4.564-4.406-7.919-8.806-9.239
		c-4.564-1.32-9.132-4.84-9.132-9.679c0-2.475,0.933-4.675,2.692-6.324c1.705-1.54,4.014-2.42,6.543-2.42
		c5.059,0,9.249,4.125,9.249,9.184l3.474,3.41V111.066z"/>
	<polygon style="&st0;" points="359.5,102 359.5,138.288 363.5,141.642 363.5,105 371.919,105 368.51,102 	"/>
	<polygon style="&st0;" points="350.087,101 368.51,101 371.919,98 346.732,98 	"/>
	<polygon style="&st0;" points="359.5,138.288 359.5,102 350.087,102 346.732,105 356.5,105 356.5,141.642 	"/>
	<polygon style="&st0;" points="379.458,134 382.813,137 388.5,137 388.5,102.377 388.5,102 382.813,102 379.458,105 385.5,105 
		385.5,134 	"/>
	<polygon style="&st0;" points="397.88,105 394.525,102 389.5,102 389.5,137 394.525,137 397.88,134 392.5,134 392.5,105 	"/>
	<polygon style="&st0;" points="382.813,101 394.525,101 397.88,98 379.458,98 	"/>
	<polygon style="&st0;" points="382.813,138 379.458,141 397.88,141 394.525,138 	"/>
	<polygon style="&st0;" points="413.5,98.363 410.5,101.717 410.5,137 427.469,137 430.823,134 413.5,134 	"/>
	<polygon style="&st0;" points="409.5,138 409.5,101.717 406.5,98.363 406.5,141 430.823,141 427.469,138 	"/>
	<polygon style="&st0;" points="446.5,98.363 443.5,101.717 443.5,137 460.468,137 463.822,134 446.5,134 	"/>
	<polygon style="&st0;" points="442.5,138 442.5,101.717 439.5,98.363 439.5,141 463.822,141 460.468,138 	"/>
	<path style="&st0;" d="M483.844,98.473c-3.52,0-6.529,1.43-8.783,3.685c-2.311,2.31-3.561,5.444-3.561,8.909v17.982
		c0,3.465,1.25,6.6,3.561,8.91c2.254,2.254,5.325,3.684,8.845,3.684c3.465,0,6.601-1.43,8.855-3.684
		c2.31-2.311,3.739-5.445,3.739-8.91v-17.982c0-3.464-1.461-6.599-3.77-8.909C490.475,99.903,487.309,98.473,483.844,98.473z
		 M493.5,129.048c0,5.061-3.913,9.186-8.973,9.186c-5.114,0-9.027-4.125-9.027-9.186v-17.982c0-5.059,3.913-9.184,9.027-9.184
		c5.06,0,8.973,4.125,8.973,9.184V129.048z"/>
	<path style="&st0;" d="M484.027,102.322c-4.84,0-8.527,3.959-8.527,8.744v17.982c0,4.84,3.688,8.689,8.527,8.744
		c4.783-0.055,8.473-3.904,8.473-8.744v-17.982C492.5,106.282,488.811,102.322,484.027,102.322z M489.5,129.048
		c0,1.486-0.766,2.805-1.701,3.795c-0.99,0.99-2.39,1.541-3.875,1.541c-1.484,0-2.877-0.551-3.867-1.541
		c-0.934-0.99-1.557-2.309-1.557-3.795v-17.982c0-1.484,0.582-2.804,1.518-3.794c0.99-0.935,2.353-1.54,3.837-1.54
		c1.485,0,2.961,0.605,3.951,1.54c0.935,0.99,1.694,2.31,1.694,3.794V129.048z"/>
	<polygon style="&st0;" points="9.817,120.118 7.5,115.181 5.183,120.118 0,120.91 3.75,124.753 2.865,130.181 7.5,127.618 
		12.136,130.181 11.25,124.753 15,120.91 	"/>
	<polygon style="&st0;" points="531,120.91 525.818,120.118 523.5,115.181 521.184,120.118 516,120.91 519.75,124.753 
		518.865,130.181 523.5,127.618 528.136,130.181 527.25,124.753 	"/>
</g>
</svg>
